# xmcd CD database file
#
# Track frame offsets:
#	150
#	15863
#	32131
#	54100
#	70424
#	84791
#	102724
#	129289
#	144507
#	164382
#	186535
#	202262
#	221733
#	239766
#	258961
#	276643
#	288479
#	302221
#	316416
#	334737
#	356330
#
# Disc length: 4784 seconds
#
# Revision: 1
# Processed by: cddbd v1.5.2PL0 Copyright (c) Steve Scherf et al.
# Submitted via: CDex 1.70beta2
#
DISCID=4812ae15
DTITLE=Rolling Stones - I Got The Blues For You
DYEAR=2012
DGENRE=Blues
TTITLE0=The Spide
TTITLE1=Back Of M
TTITLE2=Fancy Man
TTITLE3=Black Lim
TTITLE4=Break The
TTITLE5=I Got The
TTITLE6=Melody
TTITLE7=So Young
TTITLE8=Keep Up B
TTITLE9=Love In V
TTITLE10=No Use In
TTITLE11=Brand New
TTITLE12=I'm Not S
TTITLE13=Hide Your
TTITLE14=When You'
TTITLE15=You Gotta
TTITLE16=Shake You
TTITLE17=Not Fade
TTITLE18=Little Ba
TTITLE19=Always Su
TTITLE20=Goodbye S
EXTD=YEAR: 2012
EXTT0=
EXTT1=
EXTT2=
EXTT3=
EXTT4=
EXTT5=
EXTT6=
EXTT7=
EXTT8=
EXTT9=
EXTT10=
EXTT11=
EXTT12=
EXTT13=
EXTT14=
EXTT15=
EXTT16=
EXTT17=
EXTT18=
EXTT19=
EXTT20=
PLAYORDER=
